<svg xmlns="http://www.w3.org/2000/svg" xmlns:xlink="http://www.w3.org/1999/xlink" width="28" height="28" viewBox="0 0 28 28">
  <defs>
    <clipPath id="clip-path">
      <rect id="Rectangle_100" data-name="Rectangle 100" width="28" height="28" transform="translate(-0.155)" fill="none" stroke="#707070" stroke-width="1"></rect>
    </clipPath>
  </defs>
  <g id="Mask_Group_13" data-name="Mask Group 13" transform="translate(0.155)" clip-path="url(#clip-path)">
    <g id="Group_180" data-name="Group 180" transform="translate(0.973 1.506)">
      <path id="Path_86" data-name="Path 86" d="M11810.3,1444.165c5.026-4.26,13.343-1.514,13.343-1.514s.916,2.353.574,2.588" transform="translate(-11810.279 -1435.262)" fill="#004edf"></path>
      <path id="Path_87" data-name="Path 87" d="M11824.144,1456.406h-.992a6.626,6.626,0,0,1-1.512.763c-.316,0-1.173.51-1.682.45s-.907.37-1.1,0-.964.385-1.124,0-1.41-.052-1.579-.45-1.518-.231-1.769-.549-1.6-.2-1.742-.479-1.138-.108-1.346-.421-1.159.126-1.133-.389" transform="translate(-11810.166 -1446.424)" fill="#004edf"></path>
      <path id="Path_88" data-name="Path 88" d="M11870.222,1404.822c.287-.01.416.345.814.4s.691.634.823.992a14.746,14.746,0,0,0,.935,2.649,4.576,4.576,0,0,1,.823,1.292c.094.318.634.889.81.889s.476.174.563-.09.04-.2-.035-.348a3.121,3.121,0,0,1,.194-1.276,1.512,1.512,0,0,0,.182-.505.976.976,0,0,1,1.626-.173c.887.872.838.992,1.2,1s.87.573.517.914-.486.581-.931.547-.887-.1-1.1-.1-.428-.144-.489.1-.135.288,0,.29,1.037-.049,1.238.207,1.226-1.448,4.68-.594,3.506,1.879,3.506,1.879a1.228,1.228,0,0,1-.9.326c-.609,0-.572.591-1.074.584s-.116.567-.944.567-.766.8-1.557,1.027-.8.841-1.454.818-.823.037-.973,0,.231.393.251.789a13.205,13.205,0,0,0,.82,1.924c.056.2.177.192,0,.274s.183.6.183.819-.087.727-.183.724-.158-.778-.17-.871-.1.143-.227.147-.184-.39-.22-.636a1.931,1.931,0,0,0-.3-.893,12.59,12.59,0,0,1-1.209-2.183c-.079-.377-.943-.095-.943-.095a4.263,4.263,0,0,1,.62,1.52c.077.7.518,1.933.518,2.461s-.062,2.286-.072,2.421.407-.634.744-.339a5.226,5.226,0,0,1,1.441,2.588,12.314,12.314,0,0,1-.472,3.6c-.383.783-.971,3-1.352,3.156a40.116,40.116,0,0,1-4.268,0,22.3,22.3,0,0,1-1.339-2.657,4.9,4.9,0,0,1-.894-3.673c.307-2.556,1.338-2.152,1.338-2.152a7.528,7.528,0,0,0,.309-2.395,4.841,4.841,0,0,1,0-2.828c.422-1.193.6-2.8.292-3.218a6.548,6.548,0,0,1-.6-2.475,1.611,1.611,0,0,0,0-.824c-.076-.314-1.773-2.055-1.773-2.747s-.481.284-.727.212.212-1.158.175-1.7a6.213,6.213,0,0,0-.128-1.382C11870.372,1405.5,11869.935,1404.832,11870.222,1404.822Z" transform="translate(-11859.554 -1404.821)" fill="#004edf"></path>
    </g>
  </g>
</svg>